<svg xmlns="http://www.w3.org/2000/svg" viewBox="0 0 64 64" fill="none">
  <defs>
    <linearGradient id="bookGradient" x1="0%" y1="0%" x2="100%" y2="100%">
      <stop offset="0%" style="stop-color:#0D9488;stop-opacity:1" />
      <stop offset="100%" style="stop-color:#10B981;stop-opacity:1" />
    </linearGradient>
  </defs>
  <!-- Book base -->
  <path d="M12 14C12 11.7909 13.7909 10 16 10H44C46.2091 10 48 11.7909 48 14V50C48 52.2091 46.2091 54 44 54H16C13.7909 54 12 52.2091 12 50V14Z" fill="url(#bookGradient)"/>
  <!-- Book spine -->
  <rect x="12" y="10" width="6" height="44" fill="#0D9488"/>
  <!-- Book pages -->
  <rect x="20" y="18" width="24" height="3" rx="1.5" fill="white" opacity="0.9"/>
  <rect x="20" y="25" width="20" height="2" rx="1" fill="white" opacity="0.6"/>
  <rect x="20" y="30" width="22" height="2" rx="1" fill="white" opacity="0.6"/>
  <rect x="20" y="35" width="18" height="2" rx="1" fill="white" opacity="0.6"/>
  <rect x="20" y="40" width="20" height="2" rx="1" fill="white" opacity="0.6"/>
  <!-- Open book overlay -->
  <path d="M52 12C52 12 56 14 56 18V48C56 52 52 54 52 54L54 32L52 12Z" fill="#059669" opacity="0.3"/>
</svg>
