<svg width="29" height="29" viewBox="0 0 29 29" fill="none" xmlns="http://www.w3.org/2000/svg">
<g clip-path="url(#clip0_41_474)">
<path d="M15.3207 14.1422L20.0347 9.42811L23.5702 12.9636C23.8943 13.2877 24.0566 13.6806 24.057 14.1422C24.0573 14.6037 23.8951 14.9966 23.5702 15.3207L20.0347 18.8562L15.3207 14.1422ZM14.1421 12.9636L9.42809 8.24959L12.9636 4.71406C13.2877 4.38997 13.6808 4.22793 14.1427 4.22793C14.6047 4.22792 14.9973 4.38997 15.3207 4.71406L18.8562 8.24959L14.1421 12.9636ZM12.9636 14.1422L8.24958 18.8562L4.71405 15.3207C4.38996 14.9966 4.22811 14.6037 4.2285 14.1422C4.2289 13.6806 4.39074 13.2877 4.71405 12.9636L8.24958 9.42811L12.9636 14.1422ZM14.1421 15.3207L18.8562 20.0347L15.3207 23.5702C14.9966 23.8943 14.6039 24.0564 14.1427 24.0564C13.6815 24.0564 13.2885 23.8943 12.9636 23.5702L9.42809 20.0347L14.1421 15.3207Z" fill="#006557"/>
</g>
<defs>
<clipPath id="clip0_41_474">
<rect width="20" height="20" fill="white" transform="translate(0 14.1422) rotate(-45)"/>
</clipPath>
</defs>
</svg>
