<svg width="98" height="85" viewBox="0 0 98 85" fill="none" xmlns="http://www.w3.org/2000/svg">
<path d="M0 85L49 0L98 85H0ZM15.3682 76.0526H82.6318L49 17.8947L15.3682 76.0526ZM49 71.5789C50.2621 71.5789 51.3208 71.1495 52.1761 70.2905C53.0314 69.4316 53.4575 68.3698 53.4545 67.1053C53.4516 65.8407 53.0239 64.7789 52.1716 63.92C51.3193 63.0611 50.2621 62.6316 49 62.6316C47.7379 62.6316 46.6807 63.0611 45.8284 63.92C44.9761 64.7789 44.5484 65.8407 44.5455 67.1053C44.5425 68.3698 44.9701 69.4331 45.8284 70.295C46.6866 71.1569 47.7438 71.5849 49 71.5789ZM44.5455 58.1579H53.4545V35.7895H44.5455V58.1579Z" fill="#F8F8F8"/>
</svg>
